<svg aria-hidden="true" style="position: absolute; width: 0; height: 0; overflow: hidden;" version="1.1" xmlns="http://www.w3.org/2000/svg" xmlns:xlink="http://www.w3.org/1999/xlink">
<defs>
<symbol id="icon-arrow-left" viewBox="0 0 54 32">
<path d="M52 14c1.105 0 2 0.895 2 2s-0.895 2-2 2v-4zM0.586 17.414c-0.781-0.781-0.781-2.047 0-2.828l12.728-12.728c0.781-0.781 2.047-0.781 2.828 0s0.781 2.047 0 2.828l-11.314 11.314 11.314 11.314c0.781 0.781 0.781 2.047 0 2.828s-2.047 0.781-2.828 0l-12.728-12.728zM52 18h-50v-4h50v4z"></path>
</symbol>
<symbol id="icon-arrow-right" viewBox="0 0 54 32">
<path d="M2 14c-1.105 0-2 0.895-2 2s0.895 2 2 2v-4zM53.414 17.414c0.781-0.781 0.781-2.047 0-2.828l-12.728-12.728c-0.781-0.781-2.047-0.781-2.828 0s-0.781 2.047 0 2.828l11.314 11.314-11.314 11.314c-0.781 0.781-0.781 2.047 0 2.828s2.047 0.781 2.828 0l12.728-12.728zM2 18h50v-4h-50v4z"></path>
</symbol>
<symbol id="icon-facebook" viewBox="0 0 32 32">
<path d="M28.572 0h-25.143c-0.909 0-1.781 0.358-2.425 0.996-0.62 0.613-1.003 1.464-1.004 2.404v24.933c0 0.901 0.362 1.766 1.004 2.403 0.643 0.638 1.515 0.996 2.425 0.996h9.804v-10.788h-4.5v-5.078h4.501v-3.87c0-4.403 2.642-6.834 6.69-6.834 1.938 0 3.965 0.342 3.965 0.342v4.32h-2.233c-2.202 0-2.887 1.355-2.887 2.745v3.297h4.912l-0.786 5.077h-4.128v10.789h9.805c0.909 0 1.781-0.358 2.425-0.996 0.62-0.613 1.004-1.463 1.005-2.403v-24.934c0-0.902-0.362-1.767-1.004-2.404-0.622-0.616-1.478-0.996-2.422-0.996-0.001 0-0.001 0-0.002 0h0z"></path>
</symbol>
</defs>
</svg>
