<svg width="34" height="35" fill="none" xmlns="http://www.w3.org/2000/svg"><path d="M28.786 2.531H5.214c-.852 0-1.67.336-2.273.934A3.172 3.172 0 0 0 2 5.718v23.366c0 .845.339 1.655.941 2.253.603.598 1.42.933 2.273.933h9.191V22.16h-4.219V17.4h4.22v-3.626c0-4.126 2.477-6.405 6.272-6.405 1.817 0 3.717.322 3.717.322v4.049h-2.093c-2.064 0-2.707 1.27-2.707 2.57v3.09H24.2l-.737 4.76h-3.87v10.11h9.192c.852 0 1.67-.336 2.273-.933A3.172 3.172 0 0 0 32 29.084V5.718c0-.845-.339-1.656-.941-2.253a3.229 3.229 0 0 0-2.273-.934Z" fill="#436EAB"/></svg>