<svg aria-hidden="true" style="position:absolute;width:0;height:0;overflow:hidden" xmlns="http://www.w3.org/2000/svg">
    <defs>
        <symbol id="icon-instagram" viewBox="0 0 32 32">
            <path style="fill:var(--color1, #000)" d="M31.452 5.724A5.827 5.827 0 0 0 26.276.548a96.718 96.718 0 0 0-20.553 0A5.827 5.827 0 0 0 .547 5.724a96.718 96.718 0 0 0 0 20.553 5.827 5.827 0 0 0 5.176 5.176c6.844.73 13.709.73 20.553 0a5.828 5.828 0 0 0 5.176-5.176c.73-6.844.73-13.708 0-20.553z"/>
            <path style="fill:var(--color1, #000)" d="M29.712 6.881a5.17 5.17 0 0 0-4.593-4.593 85.795 85.795 0 0 0-18.238 0 5.171 5.171 0 0 0-4.593 4.593 85.795 85.795 0 0 0 0 18.238 5.17 5.17 0 0 0 4.593 4.593 85.795 85.795 0 0 0 18.238 0 5.17 5.17 0 0 0 4.593-4.593 85.795 85.795 0 0 0 0-18.238z"/>
            <path style="fill:var(--color1, #000)" d="m.48 25.613.068.664a5.828 5.828 0 0 0 5.176 5.176c6.844.73 13.709.73 20.552 0a5.827 5.827 0 0 0 5.176-5.176c.024-.221.046-.442.069-.664H.48z"/>
            <path style="fill:var(--color1, #000)" d="M31.452 26.276c.393-3.678.574-7.361.544-11.044l-7.314-7.314c-.914-1.043-2.249-1.694-3.817-1.751-3.225-.116-6.461-.11-9.687 0-2.679.092-4.553 1.893-5.033 4.54-.085.467-.136.941-.202 1.411v7.759c.037.252.091.502.108.755.107 1.61.769 2.989 1.828 3.922l7.443 7.443a96.755 96.755 0 0 0 10.954-.545 5.828 5.828 0 0 0 5.176-5.176z"/>
            <path style="fill:var(--color1, #000)" d="M31.452 26.276a5.827 5.827 0 0 1-5.176 5.176 96.738 96.738 0 0 1-10.953.545l-7.432-7.432c.862.754 1.985 1.213 3.288 1.262 3.225.121 6.461.118 9.686.002 2.917-.106 5.028-2.264 5.119-5.181.097-3.097.097-6.202 0-9.3-.042-1.346-.514-2.53-1.297-3.426l7.31 7.31a96.729 96.729 0 0 1-.545 11.044z"/>
            <path style="fill:var(--color1, #000)" d="M19.776 12.535a5.125 5.125 0 1 0-7.241 7.242l11.859 11.859a99.877 99.877 0 0 0 1.883-.182 5.827 5.827 0 0 0 5.176-5.176c.067-.627.128-1.255.182-1.883L19.776 12.536zM31.938 19.447l-9.544-9.544a1.22 1.22 0 1 0-1.707 1.707l11.08 11.08c.075-1.081.132-2.162.171-3.243z"/>
            <path style="fill:var(--color1, #000)" d="M5.943 12.119c.067-.471.117-.944.202-1.411.48-2.647 2.354-4.447 5.033-4.54 3.226-.111 6.461-.117 9.687 0 2.916.105 5.028 2.264 5.119 5.181.097 3.097.097 6.202 0 9.3-.091 2.917-2.202 5.076-5.119 5.181-3.225.116-6.462.119-9.687-.002-2.916-.11-4.933-2.274-5.128-5.195-.017-.253-.071-.503-.108-.755v-7.759zm10.06 11.982c1.476 0 2.954.044 4.428-.01 2.311-.086 3.733-1.465 3.787-3.774.067-2.877.067-5.758 0-8.636-.054-2.309-1.477-3.72-3.787-3.769a208.195 208.195 0 0 0-8.8 0c-2.293.048-3.719 1.431-3.781 3.714a161.406 161.406 0 0 0 0 8.746c.062 2.283 1.488 3.634 3.781 3.719 1.456.054 2.915.01 4.372.01z"/>
            <path fill="#fff" style="fill:var(--color2, #fff)" d="M5.943 12.119c.067-.471.117-.944.202-1.411.48-2.647 2.354-4.447 5.033-4.54 3.226-.111 6.461-.117 9.687 0 2.916.105 5.028 2.264 5.119 5.181.097 3.097.097 6.202 0 9.3-.091 2.917-2.202 5.076-5.119 5.181-3.225.116-6.462.119-9.687-.002-2.916-.11-4.933-2.274-5.128-5.195-.017-.253-.071-.503-.108-.755v-7.759zm10.06 11.982c1.476 0 2.954.044 4.428-.01 2.311-.086 3.733-1.465 3.787-3.774.067-2.877.067-5.758 0-8.636-.054-2.309-1.477-3.72-3.787-3.769a208.195 208.195 0 0 0-8.8 0c-2.293.048-3.719 1.431-3.781 3.714a161.406 161.406 0 0 0 0 8.746c.062 2.283 1.488 3.634 3.781 3.719 1.456.054 2.915.01 4.372.01z"/>
            <path fill="#fff" style="fill:var(--color2, #fff)" d="M16 10.875a5.125 5.125 0 1 0 0 10.25 5.125 5.125 0 0 0 0-10.25zm0 8.486a3.361 3.361 0 1 1 0-6.723 3.361 3.361 0 0 1 0 6.723zM22.644 10.641a1.22 1.22 0 1 1-2.439 0 1.22 1.22 0 0 1 2.439 0z"/>
        </symbol>
        <symbol id="icon-phone" viewBox="0 0 32 32">
            <path fill="#ff6b09" style="fill:var(--color3, #ff6b09)" d="M4.657.003a1.969 1.969 0 0 0-1.392.678L.67 3.65c.004-.009-.01-.008-.084.101a.656.656 0 0 0-.09.184C-.56 7.437.148 11.289 1.872 14.953S6.347 22.123 9.505 25c3.158 2.877 6.721 5.128 10.119 6.244s6.692 1.102 9.133-.742a.536.536 0 0 0 .075-.068c.064-.067.066-.075.056-.065l.01-.013L31.48 27.4c.742-.849.682-2.184-.134-2.956l-6.126-5.799a1.965 1.965 0 0 0-2.84.138l-2.772 3.173c-2.25-.678-4.173-1.828-6.023-3.58s-3.132-3.637-3.993-5.905l2.771-3.173c.742-.849.683-2.184-.133-2.956L6.104.542A1.962 1.962 0 0 0 4.656.003h-.001zm.058 1.301c.19-.009.383.06.541.209l6.126 5.8a.788.788 0 0 1 .05 1.104l-3.063 3.504a.667.667 0 0 0-.124.665c.93 2.641 2.429 4.807 4.493 6.761s4.275 3.304 6.889 4.018a.612.612 0 0 0 .626-.193l3.064-3.505a.716.716 0 0 1 1.06-.051l6.127 5.8a.786.786 0 0 1 .049 1.103l-2.561 2.93c-2.003 1.497-4.826 1.581-7.986.542-3.173-1.043-6.617-3.202-9.666-5.98s-5.702-6.169-7.332-9.633C1.394 10.949.809 7.483 1.696 4.428l2.502-2.862a.736.736 0 0 1 .52-.261z"/>
        </symbol>
    </defs>
</svg>