<svg width="30" height="30" fill="none" xmlns="http://www.w3.org/2000/svg"><path d="M4.366.002A1.849 1.849 0 0 0 3.06.638L.628 3.421c.004-.008-.01-.007-.078.095a.624.624 0 0 0-.085.172c-.99 3.283-.326 6.894 1.29 10.329 1.618 3.435 4.196 6.722 7.157 9.419 2.96 2.697 6.301 4.807 9.486 5.854 3.186 1.047 6.274 1.033 8.563-.696a.599.599 0 0 0 .07-.063c.06-.062.062-.07.052-.06l.01-.013 2.42-2.771c.695-.796.64-2.048-.126-2.772l-5.742-5.437a1.842 1.842 0 0 0-2.663.13l-2.598 2.975c-2.11-.636-3.913-1.714-5.647-3.356-1.734-1.643-2.936-3.41-3.743-5.537l2.597-2.974c.696-.796.64-2.048-.124-2.772L5.724.507A1.836 1.836 0 0 0 4.366.002Zm.054 1.22a.687.687 0 0 1 .507.196l5.743 5.438c.296.28.316.727.047 1.035l-2.872 3.285a.64.64 0 0 0-.117.624c.872 2.475 2.278 4.506 4.212 6.338 1.935 1.831 4.008 3.097 6.458 3.766a.569.569 0 0 0 .587-.18l2.872-3.287a.67.67 0 0 1 .994-.048l5.744 5.437c.296.28.315.727.046 1.034l-2.401 2.748c-1.878 1.403-4.524 1.482-7.487.508-2.975-.977-6.204-3.002-9.062-5.606-2.858-2.604-5.345-5.784-6.874-9.031C1.304 10.264.755 7.015 1.587 4.15l2.346-2.683a.692.692 0 0 1 .487-.245Z" fill="#FF6B09"/></svg>