<svg width="80" height="30" fill="none" xmlns="http://www.w3.org/2000/svg"><path d="M11.187 4.523V16.63H7.861v-4.721H3.326v4.72H0V4.524h3.326v4.549h4.535V4.522h3.326ZM23.36 11.96c0 .023-.017.294-.05.812h-6.618c.134.485.392.86.772 1.124.392.254.88.38 1.462.38.436 0 .812-.063 1.125-.19a3.29 3.29 0 0 0 .974-.622l1.68 1.799c-.884 1.014-2.178 1.522-3.88 1.522-1.064 0-2-.208-2.805-.623a4.623 4.623 0 0 1-1.882-1.73c-.437-.737-.655-1.573-.655-2.507 0-.922.213-1.747.638-2.473a4.616 4.616 0 0 1 1.798-1.73c.761-.414 1.618-.622 2.57-.622.907 0 1.73.196 2.47.588.738.38 1.32.94 1.746 1.677.437.727.655 1.591.655 2.595Zm-4.854-2.525c-.493 0-.907.144-1.243.432-.325.288-.532.68-.622 1.176h3.73c-.09-.496-.303-.888-.639-1.176-.325-.288-.734-.432-1.226-.432ZM25.504 3.797h3.191v12.832h-3.191V3.797ZM31.441 3.797h3.192v12.832h-3.192V3.797Z" fill="#fff"/><path d="M2.815 25.323h.81v3.5h-.81v-3.5Zm-1.59 3.5h-.81v-3.5h.81v3.5Zm1.65-1.435h-1.71v-.685h1.71v.685Zm3.223-.655h1.685v.63H6.098v-.63Zm.06 1.44h1.905v.65h-2.71v-3.5h2.645v.65h-1.84v2.2Zm3.45.65v-3.5h.81v2.84h1.755v.66H9.608Zm3.917 0v-3.5h.81v2.84h1.755v.66h-2.565Zm3.918 0v-3.5h.81v3.5h-.81Zm3.69.06c-.28 0-.548-.037-.805-.11a1.918 1.918 0 0 1-.62-.295l.275-.61a2.026 2.026 0 0 0 1.155.365c.16 0 .289-.015.385-.045a.47.47 0 0 0 .22-.135.299.299 0 0 0 .07-.195.257.257 0 0 0-.11-.22.837.837 0 0 0-.29-.135 4.37 4.37 0 0 0-.4-.1 5.718 5.718 0 0 1-.435-.12 1.858 1.858 0 0 1-.395-.18.908.908 0 0 1-.295-.29.87.87 0 0 1-.11-.46c0-.2.054-.382.16-.545.11-.167.274-.299.49-.395.22-.1.495-.15.825-.15.22 0 .437.026.65.08.214.05.402.126.565.23l-.25.615a2.044 2.044 0 0 0-.97-.275c-.156 0-.285.018-.385.055a.444.444 0 0 0-.215.145.32.32 0 0 0-.065.2c0 .09.037.163.11.22.074.053.17.096.29.13.12.033.252.066.395.1.147.033.292.071.435.115.147.043.28.101.4.175a.83.83 0 0 1 .405.745.946.946 0 0 1-.165.54 1.15 1.15 0 0 1-.495.395c-.216.1-.491.15-.825.15Zm5.339-3.56h.81v3.5h-.81v-3.5Zm-1.59 3.5h-.81v-3.5h.81v3.5Zm1.65-1.435h-1.71v-.685h1.71v.685Z" fill="#FF6B09"/><path d="M32.07 26.733h1.686v.63H32.07v-.63Zm.06 1.44h1.906v.65h-2.71v-3.5h2.645v.65h-1.84v2.2Zm3.45.65v-3.5h.67l2.065 2.52h-.325v-2.52h.8v3.5h-.665l-2.07-2.52h.325v2.52h-.8Zm6.629.06c-.277 0-.532-.044-.766-.13a1.862 1.862 0 0 1-.604-.38 1.785 1.785 0 0 1-.4-.575 1.838 1.838 0 0 1-.14-.725c0-.264.046-.505.14-.725a1.748 1.748 0 0 1 1.014-.95c.234-.09.49-.135.77-.135.31 0 .589.051.836.155.25.103.46.253.63.45l-.52.48a1.235 1.235 0 0 0-.415-.295c-.15-.067-.314-.1-.49-.1-.17 0-.326.026-.466.08-.14.053-.261.13-.364.23-.1.1-.179.218-.235.355-.054.136-.08.288-.08.455 0 .163.026.313.08.45.056.136.135.256.235.36.103.1.223.176.36.23.14.053.293.08.46.08.16 0 .315-.025.465-.075.153-.054.301-.142.444-.265l.46.585c-.19.143-.411.253-.664.33-.25.076-.5.115-.75.115Zm.674-.55v-1.315h.74v1.42l-.74-.105Zm2.393.49v-3.5h.81v2.84h1.755v.66h-2.565Zm3.917 0v-3.5h.81v3.5h-.81Zm3.691.06c-.28 0-.548-.037-.805-.11a1.92 1.92 0 0 1-.62-.295l.275-.61a2.027 2.027 0 0 0 1.155.365c.16 0 .288-.015.385-.045a.47.47 0 0 0 .22-.135.298.298 0 0 0 .07-.195.257.257 0 0 0-.11-.22.836.836 0 0 0-.29-.135 4.361 4.361 0 0 0-.4-.1 5.744 5.744 0 0 1-.435-.12 1.86 1.86 0 0 1-.395-.18.909.909 0 0 1-.295-.29.87.87 0 0 1-.11-.46c0-.2.053-.382.16-.545.11-.167.273-.299.49-.395.22-.1.495-.15.825-.15.22 0 .437.026.65.08.213.05.402.126.565.23l-.25.615a2.04 2.04 0 0 0-.97-.275c-.157 0-.285.018-.385.055a.445.445 0 0 0-.215.145.32.32 0 0 0-.065.2c0 .09.037.163.11.22.073.053.17.096.29.13.12.033.252.066.395.1.147.033.292.071.435.115.147.043.28.101.4.175a.83.83 0 0 1 .405.745.946.946 0 0 1-.165.54 1.15 1.15 0 0 1-.495.395c-.217.1-.492.15-.825.15Zm5.339-3.56h.81v3.5h-.81v-3.5Zm-1.59 3.5h-.81v-3.5h.81v3.5Zm1.65-1.435h-1.71v-.685h1.71v.685ZM66.295 13.983v2.646h-9.44V4.523h9.222v2.646h-5.93v2.04h5.224v2.56h-5.224v2.214h6.148ZM80 4.523v12.106h-2.738l-5.19-6.451v6.45h-3.26V4.524h2.739l5.19 6.45v-6.45H80Z" fill="#fff"/><g clip-path="url(#a)" fill="#FF6B09"><path d="M52.151 10.347c-.172-.396-.408-.786-.755-1.237-.873-1.13-1.14-3.652-1.143-3.676a.295.295 0 0 0-.518-.17c-1.042 1.2-.604 3.054-.367 3.795.065.202.136.441.186.683.385 1.956-.358 2.842-.533 3.02-.169.049-.284.025-.39-.093-.368-.415-.49-1.772-.318-3.54.036-.36.027-.684-.023-.986-.362-2.174-1.69-3.569-2.029-4.058-.93-1.415-1.024-3.77-1.027-3.791a.297.297 0 0 0-.163-.26.289.289 0 0 0-.3.021c-1.55 1.086-1.418 3.7-1.201 5.161.05.339.148.683.316 1.119.602 1.557-.118 3.567-.124 3.585-.006.019-.012.034-.015.052-.091.496-.245.792-.417.792a.195.195 0 0 1-.056-.01c-.21-.044-.32-.274-.323-.474-.012-2.579-2.526-3.446-2.553-3.455a.29.29 0 0 0-.314.09.304.304 0 0 0-.041.333c.03.063.124.341.06 1.324a11.588 11.588 0 0 1-.466 2.594 12.992 12.992 0 0 0-.497 4c.46 5.15 7.653 6.051 11.922 3.15.467-.317.85-.68 1.13-1.079 1.576-2.237.65-5.276-.04-6.89ZM41.21 15.266a.299.299 0 0 1-.279.317h-.017a.298.298 0 0 1-.297-.284c-.026-.441-.02-.904.012-1.406a.302.302 0 0 1 .317-.281.302.302 0 0 1 .276.323c-.033.478-.039.914-.012 1.33Zm.145-2.679a.297.297 0 0 1-.293.266c-.012 0-.024 0-.039-.003a.303.303 0 0 1-.258-.335l.143-1.168a.3.3 0 0 1 .331-.262.302.302 0 0 1 .258.338l-.142 1.164ZM50.148 4.136a.301.301 0 0 1-.247-.344c.018-.123.125-.752.416-1.068a.291.291 0 0 1 .418-.014c.12.114.126.305.014.427-.123.134-.228.517-.263.747a.297.297 0 0 1-.338.252ZM39.353 5.642c-.057-.225-.198-.595-.333-.717a.307.307 0 0 1-.028-.426.291.291 0 0 1 .418-.028c.32.285.486.9.516 1.02a.303.303 0 0 1-.213.369.296.296 0 0 1-.36-.218Z"/></g><defs><clipPath id="a"><path fill="#fff" transform="translate(38.88)" d="M0 0h14.214v19.954H0z"/></clipPath></defs></svg>