<svg width="80" height="30" fill="none" xmlns="http://www.w3.org/2000/svg"><path d="M2.815 25.5h.81V29h-.81v-3.5ZM1.225 29h-.81v-3.5h.81V29Zm1.65-1.435h-1.71v-.685h1.71v.685Zm3.223-.655h1.685v.63H6.098v-.63Zm.06 1.44h1.905V29h-2.71v-3.5h2.645v.65h-1.84v2.2Zm3.45.65v-3.5h.81v2.84h1.755V29H9.608Zm3.917 0v-3.5h.81v2.84h1.755V29h-2.565Zm3.918 0v-3.5h.81V29h-.81Zm3.69.06c-.28 0-.548-.037-.805-.11a1.918 1.918 0 0 1-.62-.295l.275-.61a2.023 2.023 0 0 0 1.155.365c.16 0 .289-.015.385-.045a.47.47 0 0 0 .22-.135.299.299 0 0 0 .07-.195.257.257 0 0 0-.11-.22.837.837 0 0 0-.29-.135 4.37 4.37 0 0 0-.4-.1 5.627 5.627 0 0 1-.435-.12 1.858 1.858 0 0 1-.395-.18.907.907 0 0 1-.295-.29.87.87 0 0 1-.11-.46c0-.2.054-.382.16-.545.11-.167.274-.298.49-.395.22-.1.495-.15.825-.15.22 0 .437.027.65.08.214.05.402.127.565.23l-.25.615a2.048 2.048 0 0 0-.97-.275c-.156 0-.285.018-.385.055a.445.445 0 0 0-.215.145.32.32 0 0 0-.065.2c0 .09.037.163.11.22.074.053.17.097.29.13.12.033.252.067.395.1.147.033.292.072.435.115.147.043.28.102.4.175s.217.17.29.29c.077.12.115.272.115.455a.946.946 0 0 1-.165.54 1.15 1.15 0 0 1-.495.395c-.216.1-.491.15-.825.15Zm5.339-3.56h.81V29h-.81v-3.5Zm-1.59 3.5h-.81v-3.5h.81V29Zm1.65-1.435h-1.71v-.685h1.71v.685Z" fill="#FF6B09"/><path d="M32.07 26.91h1.686v.63H32.07v-.63Zm.06 1.44h1.906V29h-2.71v-3.5h2.645v.65h-1.84v2.2Zm3.45.65v-3.5h.67l2.065 2.52h-.325V25.5h.8V29h-.665l-2.07-2.52h.325V29h-.8Zm6.629.06a2.18 2.18 0 0 1-.766-.13 1.862 1.862 0 0 1-.604-.38 1.784 1.784 0 0 1-.4-.575 1.838 1.838 0 0 1-.14-.725c0-.263.046-.505.14-.725a1.748 1.748 0 0 1 1.014-.95c.234-.09.49-.135.77-.135.31 0 .589.052.836.155.25.103.46.253.63.45l-.52.48a1.237 1.237 0 0 0-.415-.295c-.15-.067-.314-.1-.49-.1-.17 0-.326.027-.466.08-.14.053-.261.13-.364.23-.1.1-.179.218-.235.355-.054.137-.08.288-.08.455 0 .163.026.313.08.45.056.137.135.257.235.36.103.1.223.177.36.23.14.053.293.08.46.08.16 0 .315-.025.465-.075a1.38 1.38 0 0 0 .444-.265l.46.585c-.19.143-.411.253-.664.33-.25.077-.5.115-.75.115Zm.674-.55v-1.315h.74v1.42l-.74-.105Zm2.393.49v-3.5h.81v2.84h1.755V29h-2.565Zm3.917 0v-3.5h.81V29h-.81Zm3.691.06c-.28 0-.548-.037-.805-.11a1.92 1.92 0 0 1-.62-.295l.275-.61a2.024 2.024 0 0 0 1.155.365c.16 0 .288-.015.385-.045a.469.469 0 0 0 .22-.135.298.298 0 0 0 .07-.195.257.257 0 0 0-.11-.22.836.836 0 0 0-.29-.135 4.361 4.361 0 0 0-.4-.1 5.651 5.651 0 0 1-.435-.12 1.86 1.86 0 0 1-.395-.18.908.908 0 0 1-.295-.29.87.87 0 0 1-.11-.46c0-.2.053-.382.16-.545.11-.167.273-.298.49-.395.22-.1.495-.15.825-.15.22 0 .437.027.65.08.213.05.402.127.565.23l-.25.615a2.044 2.044 0 0 0-.97-.275c-.157 0-.285.018-.385.055a.445.445 0 0 0-.215.145.32.32 0 0 0-.065.2c0 .09.037.163.11.22.073.053.17.097.29.13.12.033.252.067.395.1.147.033.292.072.435.115.147.043.28.102.4.175s.217.17.29.29a.83.83 0 0 1 .115.455.946.946 0 0 1-.165.54 1.15 1.15 0 0 1-.495.395c-.217.1-.492.15-.825.15Zm5.339-3.56h.81V29h-.81v-3.5Zm-1.59 3.5h-.81v-3.5h.81V29Zm1.65-1.435h-1.71v-.685h1.71v.685ZM11.327 5.727v12.117H7.959v-4.726H3.367v4.726H0V5.727h3.367v4.553H7.96V5.727h3.368ZM23.65 13.17c0 .024-.016.295-.05.814h-6.7c.135.485.396.86.781 1.125.397.254.89.381 1.48.381.442 0 .822-.063 1.14-.19.328-.127.657-.335.986-.624l1.7 1.8C22.093 17.493 20.783 18 19.06 18c-1.077 0-2.024-.208-2.84-.623-.817-.416-1.451-.993-1.905-1.731-.442-.739-.663-1.575-.663-2.51 0-.923.215-1.748.646-2.475a4.649 4.649 0 0 1 1.82-1.732c.77-.415 1.638-.623 2.602-.623.918 0 1.752.196 2.5.589.748.38 1.338.94 1.769 1.679.442.727.663 1.592.663 2.596Zm-4.914-2.527c-.499 0-.919.144-1.259.433-.329.288-.538.68-.629 1.177h3.776c-.091-.496-.306-.889-.647-1.177-.328-.289-.742-.433-1.241-.433ZM25.82 5h3.232v12.844h-3.231V5ZM31.832 5h3.232v12.844h-3.232V5Z" fill="#111518"/><g clip-path="url(#a)" fill="#FF6B09"><path d="M52.046 10.37c-.17-.397-.403-.787-.745-1.239-.862-1.133-1.125-3.66-1.128-3.685a.302.302 0 0 0-.201-.257.288.288 0 0 0-.31.087c-1.029 1.203-.596 3.061-.362 3.803.064.204.134.443.184.685.38 1.96-.354 2.849-.526 3.028-.167.048-.28.024-.386-.094-.362-.415-.482-1.776-.313-3.549.035-.36.027-.685-.023-.988-.357-2.179-1.668-3.576-2.002-4.066-.917-1.419-1.01-3.78-1.014-3.8a.298.298 0 0 0-.16-.261.281.281 0 0 0-.295.021c-1.532 1.088-1.4 3.71-1.187 5.173.05.34.146.685.313 1.121.593 1.56-.117 3.576-.123 3.594-.006.018-.011.033-.014.052-.091.497-.243.794-.412.794a.194.194 0 0 1-.056-.01c-.207-.045-.316-.275-.318-.475-.012-2.585-2.493-3.455-2.52-3.464a.283.283 0 0 0-.309.091.309.309 0 0 0-.04.333c.028.064.122.343.058 1.328-.056.884-.21 1.76-.46 2.6a13.223 13.223 0 0 0-.49 4.009c.454 5.16 7.552 6.065 11.764 3.157a4.34 4.34 0 0 0 1.116-1.082c1.555-2.242.64-5.287-.04-6.906ZM41.25 15.3a.298.298 0 0 1-.274.319h-.018a.297.297 0 0 1-.292-.285c-.026-.442-.02-.906.012-1.41a.3.3 0 0 1 .313-.28c.16.011.283.157.271.323-.032.48-.038.915-.012 1.334Zm.144-2.684a.295.295 0 0 1-.29.267c-.011 0-.023 0-.038-.003a.303.303 0 0 1-.254-.337l.14-1.17a.298.298 0 0 1 .328-.263c.16.021.274.173.254.34l-.14 1.166ZM50.07 4.146a.302.302 0 0 1-.244-.345c.018-.124.123-.754.41-1.07a.285.285 0 0 1 .413-.015.311.311 0 0 1 .013.429c-.12.134-.224.518-.259.748a.294.294 0 0 1-.333.253ZM39.417 5.655c-.056-.225-.195-.597-.328-.718a.31.31 0 0 1-.027-.428.284.284 0 0 1 .412-.028c.315.287.48.903.51 1.024a.304.304 0 0 1-.211.368.292.292 0 0 1-.356-.218Z"/></g><path d="M66.356 14.377V17h-9.398V5h9.18v2.623h-5.902v2.023h5.2v2.537h-5.2v2.194h6.12ZM80 5v12h-2.726l-5.167-6.394V17h-3.245V5h2.726l5.168 6.394V5H80Z" fill="#111518"/><defs><clipPath id="a"><path fill="#fff" transform="translate(38.952)" d="M0 0h14.025v20H0z"/></clipPath></defs></svg>