<svg aria-hidden="true" style="position: absolute; width: 0; height: 0; overflow: hidden;" version="1.1" xmlns="http://www.w3.org/2000/svg" xmlns:xlink="http://www.w3.org/1999/xlink">
    <defs>
        <symbol id="icon-audio-book" viewBox="0 0 32 32">
            <path d="M3.018 26.769h9.923c0.496 1.036 1.536 1.74 2.74 1.74 0.001 0 0.001 0 0.002 0h0.627c0.001 0 0.002 0 0.003 0 1.204 0 2.245-0.703 2.732-1.721l0.008-0.018h9.929c1.022 0 1.854-0.843 1.854-1.879v-18.010c0-1.036-0.832-1.879-1.855-1.879h-1.001v-0.84c0-0.691-0.555-1.253-1.237-1.253h-21.494c-0.681 0-1.235 0.562-1.235 1.253v0.84h-0.997c-1.022 0-1.854 0.843-1.854 1.879v18.010c0 1.036 0.832 1.879 1.855 1.879zM26.743 22.904h-10.124v-14.557c2.34 0.311 4.154 2.34 4.154 4.794v0.564l-0.147-0.032c-0.040-0.009-0.086-0.014-0.133-0.014-0.296 0-0.544 0.209-0.603 0.488l-0.001 0.004-0.984 4.538c-0.073 0.337 0.137 0.671 0.471 0.745l2.127 0.475c0.11 0.023 0.221 0.035 0.333 0.035 0.748 0 1.385-0.518 1.548-1.262l0.57-2.624c0.187-0.862-0.352-1.719-1.204-1.911l-0.741-0.166v-0.841c0-3.147-2.367-5.744-5.391-6.060v-2.92h10.126l-0.001 18.743zM20.964 15.032l1.519 0.339c0.157 0.036 0.273 0.174 0.273 0.339 0 0.028-0.003 0.055-0.009 0.081l0-0.002-0.569 2.624c-0.041 0.16-0.184 0.277-0.355 0.277-0.020 0-0.040-0.002-0.059-0.005l0.002 0-1.52-0.34 0.719-3.313zM5.25 4.161h10.131v2.919c-3.027 0.314-5.397 2.912-5.397 6.061v0.841l-0.741 0.166c-0.413 0.093-0.766 0.342-0.992 0.702-0.156 0.243-0.249 0.54-0.249 0.859 0 0.124 0.014 0.244 0.041 0.36l-0.002-0.011 0.568 2.621c0.156 0.725 0.789 1.261 1.548 1.266h0.001c0.112 0 0.223-0.012 0.337-0.037l2.118-0.474c0.333-0.075 0.543-0.408 0.47-0.746l-0.983-4.538c-0.060-0.283-0.308-0.492-0.604-0.492-0.047 0-0.093 0.005-0.137 0.015l0.004-0.001-0.142 0.032v-0.564c0-2.456 1.818-4.487 4.161-4.794v14.558h-10.132v-18.742zM11.025 15.032l0.72 3.313-1.512 0.339c-0.022 0.005-0.047 0.008-0.072 0.008-0.168 0-0.308-0.117-0.343-0.275l-0-0.002-0.569-2.627c-0.006-0.023-0.009-0.050-0.009-0.078 0-0.165 0.115-0.302 0.268-0.338l0.002-0 1.514-0.339zM2.4 6.881c0-0.001 0-0.003 0-0.004 0-0.342 0.276-0.62 0.618-0.623h0.995v16.65c0 0.691 0.555 1.253 1.237 1.253h21.494c0.682 0 1.236-0.562 1.236-1.253v-16.65h1.001c0.342 0.002 0.619 0.28 0.619 0.623 0 0.001 0 0.003 0 0.004v-0 18.009c0 0.001 0 0.003 0 0.004 0 0.342-0.276 0.62-0.618 0.623h-10.348c-0.272 0-0.511 0.18-0.591 0.442-0.227 0.756-0.916 1.297-1.732 1.297h-0.627c-0.798 0-1.494-0.519-1.734-1.304-0.081-0.253-0.313-0.434-0.589-0.435h-10.343c-0.342-0.002-0.619-0.28-0.619-0.623 0-0.001 0-0.003 0-0.004v0-18.010z"></path>
        </symbol>
        <symbol id="icon-female-student" viewBox="0 0 32 32">
            <path d="M4.124 29.091h23.775c0.118-2.634-0.077-7.005-1.744-9.085l-0.060-0.075-3.643-1.777c0.079-0.259 0.118-0.497 0.134-0.671 0.017-0.209-0.012-0.406-0.089-0.585-0.601-1.397-1.873-2.132-2.572-2.445 0.199-0.384 0.345-0.829 0.414-1.3l0.003-0.023c0.401-0.109 0.711-0.419 0.817-0.812l0.002-0.008 0.425-1.678c0.022-0.083 0.035-0.178 0.035-0.277 0-0.355-0.167-0.671-0.427-0.874l-0.002-0.002c1.199-2.646-0.809-5.14-0.919-5.271-2.174-2.285-4.921-1.858-5.066-1.833-3.965 0.807-5.495 3.759-4.631 7.22-0.187 0.199-0.302 0.467-0.302 0.762 0 0.097 0.012 0.191 0.036 0.281l-0.002-0.008 0.427 1.68c0.108 0.399 0.415 0.708 0.805 0.816l0.008 0.002c0.128 0.856 0.494 1.61 1.027 2.212l-0.004-0.005v1.33c-5.689 2.831-2.085 1.025-6.643 3.266-0.009 0.042-2.139 2.242-1.823 8.761l0.019 0.399zM27.073 28.255h-3.913v-1.597l2.588-5.756c1.296 2.090 1.344 6.083 1.325 7.354zM21.733 17.412c-0.151 1.686-1.102 1.176-1.69 2.474-0.461-0.493-0.6-1.085-0.477-1.719 0.225-1.163-0.506-1.509-0.326-2.73l0.027-0.028v-0.004c0.016-0.017 0.16-0.183 0.201-0.236 1.548 0.656 2.294 1.875 2.263 2.243zM13.428 16.087c0.706 0.483 1.578 0.771 2.518 0.771 0.001 0 0.001 0 0.002 0h-0c0.879 0 1.713-0.248 2.429-0.706 0.099 0.961 0.486 1.153 0.349 1.86-0.022 0.111-0.040 0.244-0.048 0.379l-0 0.009-2.665 2.918-3.406-3.732 0.822-0.417v-1.081zM12.357 12.515v-4.461c0.415-0.745 0.98-1.286 1.683-1.609 1.882 1.034 4.048 2.578 5.501 4.132-0.001 1.979 0.006 1.984-0.008 2.147l-0.001 0.010c-0.113 1.797-1.634 3.286-3.584 3.286-1.896 0-3.47-1.446-3.584-3.304-0.005-0.054-0.007-0.117-0.007-0.181 0-0.007 0-0.015 0-0.022v0.001zM11.826 17.989l4.186 4.585 2.81-3.077c0.065 0.18 0.155 0.349 0.258 0.514l-3.068 3.727-4.575-5.559 0.389-0.19zM20.397 11.842v-1.292l0.32-0.356c0.017 0.655 0.090-0.118-0.32 1.648zM15.366 3.196c0.17 0.010 2.455-0.337 4.26 1.556 0.071 0.087 1.541 1.926 0.95 3.939-0.202-0.895-0.554-2.043-1.111-2.591l-0.608 0.589c0.549 0.541 0.911 2.188 1.048 3.042-2.521-2.563-5.773-4.186-5.818-4.214-0.163 0.099-1.54 0.353-2.539 2.24l-0.048 0.091v1.386l-0.126 0.001c-0.635-2.979 0.581-5.346 3.992-6.040zM11.283 10.097l0.216 0.852v0.895l-0.36-1.414c-0.052-0.211 0.108-0.291 0.143-0.332zM10.653 18.562l5.359 6.512 3.626-4.406c0.394 0.343 0.584 0.392 1.421 0.809l-0.282-0.929c-0.072-0.236 0.212-0.615 0.383-0.789 0.383-0.204 0.699-0.489 0.933-0.834l0.006-0.009 2.959 1.443-2.753 6.124v1.772h-12.584v-1.773l-2.754-6.122 3.686-1.798zM6.276 20.904l2.588 5.755v1.597h-3.913c-0.020-1.271 0.029-5.26 1.325-7.352z"></path>
        </symbol>
        <symbol id="icon-mobile-learning" viewBox="0 0 32 32">
            <path d="M28.090 2.327h-13.424c-0.001 0-0.002 0-0.002 0-0.872 0-1.579 0.705-1.583 1.576v5.526l-9.972 4.162c-0.118 0.050-0.199 0.164-0.199 0.298 0 0.117 0.062 0.22 0.156 0.276l0.001 0.001 1.272 0.757v8.066c-0.655 0.151-1.136 0.729-1.139 1.419v0.778c0 0.178 0.145 0.323 0.325 0.323h2.277c0 0 0 0 0.001 0 0.179 0 0.323-0.144 0.324-0.323v-0.777c-0.003-0.69-0.484-1.267-1.129-1.417l-0.010-0.002v-7.68l1.006 0.598c-0.031 0.23-0.004-0.401-0.015 3.756 0 1.367 3.52 2.099 7.102 2.14v6.295c0 0.325 0.1 0.627 0.272 0.879 0.289 0.422 0.768 0.695 1.312 0.695 0 0 0.001 0 0.001 0h13.424c0.873 0 1.583-0.706 1.583-1.574 0 0.043-0.002-1.334 0-24.195 0-0.857-0.713-1.576-1.583-1.576zM5.478 24.408v0.454h-1.628v-0.454c0-0.448 0.364-0.812 0.812-0.812 0.001 0 0.001 0 0.002 0 0.449 0 0.813 0.363 0.815 0.811v0zM28.090 29.025h-13.424c-0 0-0.001 0-0.001 0-0.32 0-0.603-0.16-0.772-0.405l-0.002-0.003c-0.1-0.145-0.159-0.324-0.159-0.517 0-0 0-0.001 0-0.001v0-2.182h15.29v2.182c-0.006 0.511-0.42 0.923-0.931 0.926h-0zM29.021 25.27h-15.29v-3.464c1.748-0.020 7.106-0.403 7.106-2.142-0.002-2.612 0.005-3.671-0.008-3.76l2.917-1.737c0.095-0.057 0.157-0.16 0.157-0.277 0-0.133-0.081-0.248-0.196-0.297l-0.002-0.001-9.973-4.163v-2.697h15.29v18.538zM13.407 17.519c-1.802 0-5.27 0.232-6.777 1.21 0.009-2.993-0.105-2.799 0.266-3.052 0.936-0.686 3.613-1.164 6.511-1.164 1.264 0 6.782 0.346 6.782 1.507v2.709c-1.521-0.987-4.972-1.21-6.781-1.21zM13.731 3.904c0-0.512 0.419-0.929 0.934-0.929h13.424c0.515 0 0.932 0.422 0.932 0.929v2.182h-15.29v-2.182zM13.405 9.994l9.455 3.946-2.342 1.394c-1.246-1.228-5.366-1.466-7.112-1.466-1.749 0-5.869 0.239-7.112 1.466l-2.343-1.394 9.456-3.946zM6.629 19.664c0-0.523 2.327-1.498 6.777-1.498 4.452 0 6.781 0.975 6.781 1.498s-2.329 1.499-6.781 1.499c-4.45 0-6.777-0.976-6.777-1.499z"></path>
            <path d="M21.377 26.403c-0.001 0-0.001 0-0.002 0-0.591 0-1.070 0.478-1.072 1.068v0c0 0.589 0.482 1.069 1.074 1.069 0 0 0.001 0 0.001 0 0.591 0 1.071-0.478 1.073-1.069v-0c-0.002-0.59-0.482-1.068-1.072-1.068-0.001 0-0.001 0-0.002 0h0zM21.377 27.894c0 0 0 0 0 0-0.234 0-0.424-0.189-0.425-0.423v-0c0-0.233 0.19-0.422 0.425-0.422s0.425 0.19 0.425 0.422c-0.001 0.234-0.191 0.423-0.425 0.423 0 0 0 0 0 0v0zM22.616 4.207h-2.478v0.646h2.478v-0.646z"></path>
        </symbol>
        <symbol id="icon-open-book" viewBox="0 0 32 32">
            <path d="M14.717 9.194h-8.443v0.635h8.443v-0.635zM14.717 11.567h-7.179v0.635h7.18v-0.635zM14.717 13.939h-8.443v0.635h8.443v-0.635zM14.717 16.311h-7.179v0.635h7.18v-0.635zM14.717 18.683h-8.443v0.636h8.443v-0.637zM14.717 21.055h-7.179v0.636h7.18v-0.636zM26.308 9.194h-8.443v0.635h8.443v-0.635zM25.043 11.567h-7.179v0.635h7.18v-0.635zM26.308 13.939h-8.443v0.635h8.443v-0.635zM25.043 16.311h-7.179v0.635h7.18v-0.635zM26.308 18.683h-8.443v0.636h8.443v-0.637zM25.043 21.055h-7.179v0.636h7.18v-0.636z"></path>
            <path d="M29.357 8.47h-1.159v-1.752c0-0 0-0.001 0-0.001 0-0.175-0.142-0.317-0.317-0.317 0 0 0 0 0 0h-9.449c-0.002 0-0.005 0-0.008 0-0.912 0-1.707 0.5-2.126 1.241l-0.006 0.012c-0.426-0.753-1.221-1.253-2.133-1.253-0.003 0-0.005 0-0.008 0h-9.449c-0.175 0-0.316 0.143-0.316 0.318v1.751h-1.159c-0.175 0-0.316 0.143-0.316 0.318v17.076c0 0.175 0.141 0.318 0.316 0.318h26.132c0.175 0 0.316-0.143 0.316-0.318v-17.076c0-0 0-0 0-0.001 0-0.175-0.141-0.316-0.316-0.317h-0zM18.432 7.037h9.133v17.037h-9.808c-0.439 0.007-0.84 0.166-1.154 0.426l0.003-0.002v-15.629c-0-0.003-0-0.008-0-0.012 0-1.006 0.815-1.821 1.821-1.821 0.001 0 0.003 0 0.004 0h-0zM5.016 7.037h9.133c0.002 0 0.004 0 0.007 0 0.984 0 1.785 0.783 1.814 1.76l0 0.003c0 0.013 0.002 0.056 0.004 0.070v15.628c-0.309-0.257-0.709-0.415-1.145-0.422l-0.002-0h-9.813v-17.038zM3.542 9.105h0.842v15.286c0 0.176 0.142 0.318 0.317 0.318h10.128c0.482 0 0.948 0.318 1.097 0.835h-12.383v-16.44zM29.040 25.545h-12.383c0.139-0.486 0.579-0.835 1.101-0.835h10.124c0.175 0 0.317-0.143 0.317-0.318v-15.286h0.842v16.44z"></path>
        </symbol>
        <symbol id="icon-psy-support" viewBox="0 0 32 32">
            <path d="M4.055 13.287v2.471c0 0.133 0.061 0.258 0.164 0.34 1.612 1.283 3.677 2.059 5.924 2.061h0.001c0.677-0.001 1.337-0.072 1.974-0.207l-0.063 0.011c1.242 0.569 2.693 0.901 4.223 0.901 0.005 0 0.010 0 0.015 0h-0.001c0.006 0 0.013 0 0.021 0 1.527 0 2.977-0.332 4.281-0.927l-0.065 0.026c2.678 0.545 5.532-0.040 7.835-1.866 0.1-0.080 0.164-0.203 0.164-0.34 0-0 0-0 0-0v0-2.471c0-0.362-0.179-0.693-0.498-0.896l-3.351-1.899c0.733-0.937 1.279-2.271 1.374-3.415 0.278-1.969-1.315-4.055-3.609-4.055-0.965 0-1.882 0.4-2.554 1.071-0.023 0.023-0.050 0.043-0.073 0.067-0.020 0.022-0.037 0.047-0.058 0.070-0.013 0.015-0.025 0.031-0.038 0.047-0.656-1.205-1.915-1.949-3.4-1.949-0.144 0-0.286 0.010-0.426 0.024-0.009-0.001-0.016-0.005-0.025-0.005-0.079 0-0.248 0.022-0.338 0.048-0.013 0.003-0.023 0.013-0.036 0.018-1.125 0.231-2.055 0.922-2.601 1.863l-0.010 0.019c-0.666-0.78-1.65-1.271-2.749-1.271-0.002 0-0.004 0-0.005 0h0c-3.386 0-4.889 4.025-2.216 7.489l-3.382 1.891c-0.29 0.188-0.479 0.51-0.479 0.877 0 0.003 0 0.006 0 0.009v-0zM20.52 17.014c-0.073 0.035-0.144 0.074-0.218 0.108l-0.002 0.001c-1.168 0.554-2.538 0.878-3.984 0.878-0.009 0-0.018 0-0.028-0h0.001c-1.398 0-2.746-0.296-4.011-0.879-0.676-0.316-1.258-0.671-1.794-1.083l0.023 0.017v-2.505c0-0.085 0.041-0.161 0.088-0.193l3.935-2.203c0.49 0.419 1.115 0.726 1.763 0.726 0.625 0 1.299-0.312 1.779-0.736l3.888 2.199c0.072 0.047 0.113 0.122 0.113 0.207v2.505c-0.451 0.345-0.96 0.664-1.499 0.933l-0.055 0.025zM27.589 13.133c0.048 0.032 0.080 0.086 0.080 0.148 0 0.002-0 0.004-0 0.007v-0 2.258c-1.428 1.093-3.239 1.751-5.204 1.751-0.223 0-0.444-0.008-0.663-0.025l0.029 0.002c0.32-0.201 0.668-0.451 0.938-0.664 0.101-0.080 0.165-0.203 0.165-0.34 0 0 0-0 0-0v0-2.718c0-0.379-0.189-0.729-0.529-0.948l-2.065-1.169 0.502-0.28c0.609 0.5 1.132 0.649 1.602 0.649 0.574 0 1.178-0.283 1.627-0.662l3.518 1.993zM22.444 3.888c1.196 0 2.246 0.787 2.618 1.869-0.771-0.101-1.443-0.464-1.937-0.995l-0.002-0.002c-0.079-0.084-0.19-0.137-0.314-0.137-0.156 0-0.293 0.083-0.368 0.208l-0.001 0.002c-0.49 0.827-1.293 1.379-2.207 1.536v-0.003c0-0.021 0.001-0.046 0.001-0.071 0-0.176-0.011-0.349-0.031-0.519l0.002 0.021-0.006-0.058c-0.030-0.209-0.067-0.389-0.113-0.565l0.008 0.034c0.488-0.787 1.395-1.321 2.351-1.321zM20.138 7.252c1.121-0.126 2.088-0.696 2.735-1.528l0.007-0.009c0.665 0.549 1.508 0.881 2.341 0.922-0.006 1.564-1.274 4.3-2.778 4.3-1.159 0-2.148-1.669-2.518-2.826 0.094-0.297 0.162-0.584 0.212-0.858zM20.226 10.507l-0.768 0.428-0.774-0.439c0.287-0.361 0.55-0.779 0.776-1.233 0.217 0.46 0.477 0.881 0.766 1.244zM19.068 7.969c-0.415 1.245-1.478 3.046-2.772 3.046-1.51 0-2.795-2.499-3.040-4.098 0.065-0.016 2.105 0.111 3.508-1.746 0.713 0.6 1.674 0.998 2.609 1.037 0.011 0.564-0.125 1.228-0.305 1.762zM16.321 3.192c2.409 0 2.867 2.089 2.904 2.132-0.882-0.1-1.654-0.507-2.218-1.112l-0.002-0.002c-0.078-0.085-0.19-0.137-0.314-0.137-0.157 0-0.294 0.085-0.369 0.211l-0.001 0.002c-0.46 0.785-1.193 1.368-2.067 1.623l-0.025 0.006c-0.296 0.085-0.636 0.134-0.988 0.134-0.008 0-0.016-0-0.024-0h0.001c0.118-1.59 1.383-2.857 3.102-2.857zM13.125 9.255c0.223 0.449 0.488 0.879 0.791 1.255l-0.759 0.425-0.785-0.444c0.298-0.383 0.551-0.81 0.753-1.235zM10.131 3.888c0.974 0 1.867 0.498 2.364 1.321-0.025 0.087-0.092 0.435-0.101 0.478-0.627-0.156-1.164-0.482-1.575-0.925l-0.002-0.002c-0.078-0.084-0.19-0.137-0.313-0.137-0.157 0-0.294 0.085-0.368 0.21l-0.001 0.002c-0.566 0.95-1.586 1.578-2.752 1.584h-0.001c0.137-1.42 1.315-2.531 2.75-2.531zM7.419 7.282c1.28-0.017 2.415-0.623 3.15-1.558l0.007-0.009c0.493 0.408 1.094 0.703 1.755 0.834l0.025 0.004c0.026 0.502 0.155 1.111 0.304 1.561-0.237 0.733-0.692 1.606-1.257 2.186-0.004 0.004-0.009 0.005-0.012 0.009-0.354 0.375-0.856 0.627-1.252 0.627-1.381 0-2.461-2.189-2.721-3.655zM4.914 13.287c0-0.066 0.029-0.122 0.058-0.141l3.567-1.993c0.214 0.18 0.263 0.2 0.306 0.232 0.419 0.282 0.804 0.421 1.329 0.421 0.559 0 1.068-0.239 1.516-0.606 0.025-0.020 0.052-0.039 0.076-0.059l0.509 0.288-2.12 1.188c-0.317 0.206-0.506 0.556-0.506 0.935v2.718c0 0.133 0.060 0.258 0.165 0.34 0.274 0.217 0.63 0.471 0.938 0.664-2.109 0.145-4.161-0.461-5.837-1.728v-2.258z"></path>
            <path d="M29.412 20.463c-0.27-0.175-0.6-0.279-0.955-0.279-0.286 0-0.555 0.067-0.794 0.187l0.010-0.005-5.302 2.58c-0.019-1-0.829-1.808-1.826-1.808l-3.040 0.001c-1.499-1.313-3.415-2.117-5.157-2.159-1.132-0.029-2.527-0.049-3.925-0.056l-0.055-0v-0.874h-6.040v10.050h6.041v-1.204c1.656 0.958 6.011 3.357 8.079 3.357 0.047 0 0.093-0.001 0.137-0.004 3.635-0.205 12.209-6.282 12.774-6.685 0.54-0.322 0.897-0.902 0.897-1.567 0-0 0-0.001 0-0.001v0c0-0.002 0-0.005 0-0.008 0-0.64-0.333-1.202-0.836-1.523l-0.007-0.004zM7.509 27.237h-4.323v-8.32h4.323v8.32zM28.916 22.823c-0.015 0.008-0.027 0.016-0.039 0.025l0.001-0.001c-0.089 0.063-8.908 6.346-12.342 6.54-0.031 0.002-0.068 0.003-0.104 0.003h-0c-1.813 0-6.233-2.402-8.064-3.491v-6.106c0.717 0.003 2.25 0.015 3.959 0.055 1.592 0.038 3.359 0.804 4.727 2.047l0.122 0.111h3.369c0.535 0 0.97 0.438 0.97 0.976s-0.435 0.977-0.969 0.977h-6.188v0.865h6.188c0.593 0 1.116-0.29 1.45-0.733l6.051-2.944c0.297-0.145 0.628-0.127 0.909 0.050 0.279 0.176 0.44 0.468 0.44 0.801 0 0.342-0.183 0.657-0.479 0.825zM16.721 12.938h-0.859v0.803h0.859v-0.803zM16.721 14.538h-0.859v0.803h0.859v-0.803zM16.721 16.14h-0.859v0.802h0.859v-0.803z"></path>
        </symbol>
        <symbol id="icon-study-program" viewBox="0 0 32 32">
            <path d="M29.071 6.088v-0.002c-0.013-0.031-0.031-0.057-0.053-0.079l-0-0-4.231-4.189c-0.011-0.010-0.022-0.020-0.035-0.028l-0.001-0.001-0.008-0.005c-0.009-0.006-0.019-0.011-0.030-0.016l-0.002-0.001-0.009-0.004c-0.026-0.010-0.056-0.017-0.087-0.017h-18.642c-0.138 0-0.25 0.111-0.25 0.247v25.546c0 0.016 0.002 0.033 0.005 0.049l0.006 0.020c0.003 0.009 0.005 0.017 0.008 0.026l0.012 0.022c0.004 0.006 0.007 0.014 0.012 0.020 0.009 0.013 0.019 0.024 0.029 0.035v0l0.002 0.002 1.906 1.886c0.097 0.097 0.255 0.097 0.353 0l1.73-1.711 1.729 1.711c0.045 0.045 0.108 0.073 0.177 0.073s0.132-0.028 0.177-0.073v0l1.729-1.711 1.73 1.711c0.098 0.097 0.256 0.097 0.354 0l1.728-1.711 1.729 1.711c0.098 0.097 0.256 0.097 0.353 0l1.73-1.711 1.728 1.711c0.045 0.045 0.108 0.073 0.177 0.073s0.132-0.028 0.177-0.073v0l1.729-1.711 1.73 1.711c0.097 0.097 0.256 0.097 0.353 0l1.905-1.886c0.004-0.003 0.006-0.008 0.010-0.012 0.007-0.008 0.015-0.016 0.021-0.026 0.006-0.008 0.010-0.017 0.015-0.026l0.008-0.016c0.005-0.012 0.008-0.023 0.010-0.034l0.004-0.012c0.003-0.015 0.006-0.033 0.006-0.050v-21.356c-0.001-0.034-0.009-0.067-0.022-0.096l0.001 0.002zM24.859 2.591l3.377 3.343h-3.377v-3.343zM28.59 27.436l-1.655 1.638-1.73-1.711c-0.045-0.045-0.108-0.073-0.177-0.073s-0.131 0.028-0.177 0.073l0-0-1.728 1.711-1.729-1.711c-0.046-0.045-0.108-0.072-0.177-0.072s-0.131 0.028-0.177 0.072l0-0-1.73 1.711-1.728-1.711c-0.045-0.045-0.108-0.073-0.177-0.073s-0.132 0.028-0.177 0.073h-0.001l-1.728 1.711-1.73-1.711c-0.046-0.045-0.108-0.072-0.177-0.072s-0.131 0.028-0.177 0.072l0-0-1.728 1.711-1.729-1.711c-0.046-0.045-0.108-0.072-0.177-0.072s-0.131 0.028-0.177 0.072l0-0-1.73 1.711-1.655-1.638v-25.196h18.138v3.941c0 0.137 0.112 0.248 0.25 0.248h3.98v21.007z"></path>
            <path d="M8.086 4.583h8.19c0.138 0 0.25-0.111 0.25-0.248s-0.112-0.248-0.249-0.248c-0 0-0.001 0-0.001 0h-8.19c-0.138 0-0.25 0.111-0.25 0.248s0.112 0.248 0.25 0.248zM8.086 6.114h13.133c0.138 0 0.25-0.111 0.25-0.248-0.001-0.137-0.112-0.247-0.249-0.247-0 0-0.001 0-0.001 0h-13.134c-0.138 0-0.25 0.111-0.25 0.247s0.112 0.248 0.25 0.248zM7.835 7.488v8.017c0 0.137 0.112 0.248 0.25 0.248h18.639c0.138 0 0.25-0.111 0.25-0.248v-8.017c-0.001-0.137-0.112-0.247-0.249-0.247-0 0-0.001 0-0.001 0h-18.639c-0.138 0-0.25 0.111-0.25 0.247zM13.363 7.736h13.111v2.131h-13.111v-2.131zM13.363 10.362h13.111v2.129h-13.111v-2.129zM13.363 12.987h13.111v2.27h-13.111v-2.27zM8.336 7.736h4.527v2.131h-4.527v-2.131zM8.336 10.362h4.527v2.129h-4.527v-2.129zM8.336 12.987h4.527v2.27h-4.527v-2.27zM26.725 16.867h-18.639c-0.138 0-0.25 0.111-0.25 0.248v8.017c0 0.136 0.112 0.247 0.25 0.247s0.25-0.111 0.25-0.247v-2.518h4.527v2.518c0 0.137 0.112 0.247 0.25 0.247s0.25-0.111 0.25-0.247v-2.518h13.111v2.518c0 0.137 0.112 0.247 0.25 0.247s0.25-0.111 0.25-0.247v-8.017c-0-0.137-0.111-0.247-0.248-0.247-0.001 0-0.001 0-0.002 0h0zM12.863 22.118h-4.527v-2.129h4.527v2.129zM12.863 19.493h-4.527v-2.131h4.527v2.131zM26.474 22.118h-13.111v-2.129h13.111v2.129zM26.474 19.493h-13.111v-2.131h13.111v2.131zM4.535 1.745c-0.138 0-0.25 0.111-0.25 0.248v25.546c0 0.136 0.112 0.247 0.25 0.247s0.25-0.111 0.25-0.247v-25.546c-0.001-0.137-0.112-0.248-0.249-0.248-0 0-0.001 0-0.001 0h0zM3.159 1.745c-0.138 0-0.25 0.111-0.25 0.248v25.546c0 0.136 0.112 0.247 0.25 0.247s0.25-0.111 0.25-0.247v-25.546c-0.001-0.137-0.112-0.248-0.249-0.248-0 0-0.001 0-0.001 0h0z"></path>
        </symbol>
        <symbol id="icon-close" viewBox="0 0 32 32"><path d="m26.667 7.303-1.97-1.97-7.808 7.808-7.808-7.808-1.97 1.97 7.808 7.808-7.808 7.808 1.97 1.97 7.808-7.808 7.808 7.808 1.97-1.97-7.808-7.808 7.808-7.808z"/></symbol>
        <symbol id="icon-person" viewBox="0 0 32 32"><path d="M16 16c2.947 0 5.333-2.387 5.333-5.333S18.946 5.334 16 5.334c-2.947 0-5.333 2.387-5.333 5.333S13.054 16 16 16zm0 2.667c-3.56 0-10.667 1.787-10.667 5.333v1.333c0 .733.6 1.333 1.333 1.333h18.667c.733 0 1.333-.6 1.333-1.333V24c0-3.547-7.107-5.333-10.667-5.333z"/></symbol>
        <symbol id="icon-phone-modal" viewBox="0 0 32 32"><path d="m24.882 19.773-3.268-.373a2.561 2.561 0 0 0-2.11.733L17.137 22.5a19.357 19.357 0 0 1-8.478-8.478l2.38-2.38a2.561 2.561 0 0 0 .733-2.11l-.373-3.242a2.575 2.575 0 0 0-2.56-2.277H6.613c-1.454 0-2.663 1.209-2.573 2.663.682 10.987 9.469 19.761 20.443 20.443 1.454.09 2.663-1.119 2.663-2.573V22.32a2.549 2.549 0 0 0-2.264-2.547z"/></symbol>
        <symbol id="icon-email-modal" viewBox="0 0 32 32"><path d="M26.667 5.333H5.334A2.663 2.663 0 0 0 2.681 8l-.013 16c0 1.467 1.2 2.667 2.667 2.667h21.333c1.467 0 2.667-1.2 2.667-2.667V8c0-1.467-1.2-2.667-2.667-2.667zM26.133 11l-9.427 5.893a1.346 1.346 0 0 1-1.413 0L5.866 11a1.132 1.132 0 1 1 1.2-1.92l8.933 5.587 8.933-5.587a1.132 1.132 0 1 1 1.2 1.92z"/></symbol>
        <symbol id="icon-check" viewBox="0 0 32 32"><path fill="#fff" style="fill:var(--color1, #fff);stroke:var(--color1, #fff)" stroke="#fff" stroke-width=".492" d="m4.817 15.389-.169-.162-2.544 2.41 8.962 8.55L29.895 8.225l-2.527-2.411L11.066 21.35l-6.249-5.962z"/></symbol>
        <symbol id="icon-burger-close" viewBox="0 0 30 32">
            <path fill="none" stroke="#fff" style="stroke: var(--color1, #fff)" stroke-linejoin="miter" stroke-linecap="round" stroke-miterlimit="4" stroke-width="3.5556" d="M1.781 28.885l25.77-25.77"></path>
            <path fill="none" stroke="#fff" style="stroke: var(--color1, #fff)" stroke-linejoin="miter" stroke-linecap="round" stroke-miterlimit="4" stroke-width="3.5556" d="M27.552 28.885l-25.77-25.77"></path>
            </symbol>
            <symbol id="icon-burger-menu" viewBox="0 0 23 14" >
            <path d="M1 1H22" stroke="black" stroke-width="2" stroke-linecap="round"/>
            <path d="M1 7H22" stroke="black" stroke-width="2" stroke-linecap="round"/>
            <path d="M1 13H22" stroke="black" stroke-width="2" stroke-linecap="round"/>
        </symbol>
        <symbol id="icon-logo-fire" viewBox="0 0 23 32">
            <path fill="#ff6b09" style="fill: var(--color2, #ff6b09)" d="M21.909 16.593c-0.284-0.635-0.675-1.261-1.247-1.983-1.442-1.813-1.882-5.857-1.887-5.896-0.020-0.194-0.156-0.354-0.337-0.412-0.186-0.058-0.386-0.005-0.518 0.141-1.721 1.925-0.997 4.897-0.606 6.085 0.108 0.325 0.225 0.708 0.308 1.096 0.636 3.137-0.592 4.558-0.88 4.844-0.279 0.078-0.469 0.039-0.645-0.15-0.606-0.664-0.807-2.841-0.523-5.678 0.059-0.577 0.044-1.096-0.039-1.581-0.598-3.486-2.791-5.722-3.349-6.507-1.535-2.269-1.692-6.046-1.696-6.080-0.005-0.179-0.108-0.339-0.269-0.417-0.156-0.078-0.347-0.068-0.494 0.034-2.562 1.741-2.342 5.935-1.985 8.276 0.083 0.543 0.244 1.096 0.523 1.794 0.992 2.497-0.196 5.721-0.205 5.75s-0.020 0.053-0.024 0.082c-0.152 0.795-0.406 1.27-0.689 1.27-0.029 0-0.059-0.005-0.093-0.015-0.347-0.073-0.528-0.441-0.533-0.761-0.020-4.136-4.17-5.527-4.214-5.542-0.186-0.058-0.391-0.005-0.518 0.146-0.132 0.15-0.156 0.359-0.068 0.533 0.049 0.102 0.205 0.548 0.098 2.124-0.093 1.416-0.352 2.817-0.768 4.16-0.988 3.219-0.831 6.269-0.821 6.415 0.759 8.257 12.635 9.704 19.683 5.052 0.772-0.509 1.403-1.091 1.868-1.731 2.601-3.588 1.071-8.461-0.068-11.050zM3.845 24.481c0.015 0.267-0.191 0.495-0.46 0.509h-0.029c-0.259 0-0.474-0.199-0.489-0.456-0.044-0.708-0.034-1.45 0.020-2.255 0.020-0.267 0.254-0.465 0.523-0.451 0.269 0.019 0.474 0.252 0.455 0.519-0.054 0.766-0.064 1.464-0.020 2.133zM4.084 20.185c-0.029 0.247-0.24 0.427-0.484 0.427-0.020 0-0.039 0-0.064-0.005-0.264-0.034-0.455-0.271-0.425-0.538l0.235-1.872c0.034-0.262 0.274-0.451 0.548-0.422 0.269 0.034 0.46 0.276 0.425 0.543l-0.235 1.867z"></path>
            <path fill="#ff6b09" style="fill: var(--color2, #ff6b09)" d="M18.602 6.633c-0.267-0.041-0.45-0.288-0.408-0.553 0.030-0.197 0.207-1.205 0.686-1.713 0.185-0.196 0.493-0.206 0.691-0.022s0.207 0.49 0.022 0.685c-0.203 0.215-0.376 0.829-0.433 1.197-0.041 0.262-0.287 0.445-0.558 0.405z"></path>
            <path fill="#ff6b09" style="fill: var(--color2, #ff6b09)" d="M0.778 9.048c-0.094-0.361-0.326-0.955-0.549-1.149-0.203-0.177-0.223-0.483-0.045-0.684s0.486-0.222 0.69-0.045c0.527 0.458 0.802 1.445 0.852 1.638 0.067 0.259-0.091 0.523-0.352 0.59-0.267 0.067-0.529-0.094-0.595-0.349z"></path>
        </symbol>
        <symbol id="icon-phone" viewBox="0 0 32 32">
            <path fill="#ff6b09" style="fill:var(--color3, #ff6b09)" d="M4.657.003a1.969 1.969 0 0 0-1.392.678L.67 3.65c.004-.009-.01-.008-.084.101a.656.656 0 0 0-.09.184C-.56 7.437.148 11.289 1.872 14.953S6.347 22.123 9.505 25c3.158 2.877 6.721 5.128 10.119 6.244s6.692 1.102 9.133-.742a.536.536 0 0 0 .075-.068c.064-.067.066-.075.056-.065l.01-.013L31.48 27.4c.742-.849.682-2.184-.134-2.956l-6.126-5.799a1.965 1.965 0 0 0-2.84.138l-2.772 3.173c-2.25-.678-4.173-1.828-6.023-3.58s-3.132-3.637-3.993-5.905l2.771-3.173c.742-.849.683-2.184-.133-2.956L6.104.542A1.962 1.962 0 0 0 4.656.003h-.001zm.058 1.301c.19-.009.383.06.541.209l6.126 5.8a.788.788 0 0 1 .05 1.104l-3.063 3.504a.667.667 0 0 0-.124.665c.93 2.641 2.429 4.807 4.493 6.761s4.275 3.304 6.889 4.018a.612.612 0 0 0 .626-.193l3.064-3.505a.716.716 0 0 1 1.06-.051l6.127 5.8a.786.786 0 0 1 .049 1.103l-2.561 2.93c-2.003 1.497-4.826 1.581-7.986.542-3.173-1.043-6.617-3.202-9.666-5.98s-5.702-6.169-7.332-9.633C1.394 10.949.809 7.483 1.696 4.428l2.502-2.862a.736.736 0 0 1 .52-.261z"/>
        </symbol>
        <symbol id="icon-facebook" viewBox="0 0 32 32">
            <path d="M28.572 0h-25.143c-0.909 0-1.781 0.358-2.425 0.996-0.62 0.613-1.003 1.464-1.004 2.404v24.933c0 0.901 0.362 1.766 1.004 2.403 0.643 0.638 1.515 0.996 2.425 0.996h9.804v-10.788h-4.5v-5.078h4.501v-3.87c0-4.403 2.642-6.834 6.69-6.834 1.938 0 3.965 0.342 3.965 0.342v4.32h-2.233c-2.202 0-2.887 1.355-2.887 2.745v3.297h4.912l-0.786 5.077h-4.128v10.789h9.805c0.909 0 1.781-0.358 2.425-0.996 0.62-0.613 1.004-1.463 1.005-2.403v-24.934c0-0.902-0.362-1.767-1.004-2.404-0.622-0.616-1.478-0.996-2.422-0.996-0.001 0-0.001 0-0.002 0h0z"></path>
        </symbol>
        <symbol id="icon-arrow-left" viewBox="0 0 54 32">
            <path d="M52 14c1.105 0 2 0.895 2 2s-0.895 2-2 2v-4zM0.586 17.414c-0.781-0.781-0.781-2.047 0-2.828l12.728-12.728c0.781-0.781 2.047-0.781 2.828 0s0.781 2.047 0 2.828l-11.314 11.314 11.314 11.314c0.781 0.781 0.781 2.047 0 2.828s-2.047 0.781-2.828 0l-12.728-12.728zM52 18h-50v-4h50v4z"></path>
        </symbol>
        <symbol id="icon-arrow-right" viewBox="0 0 54 32">
            <path d="M2 14c-1.105 0-2 0.895-2 2s0.895 2 2 2v-4zM53.414 17.414c0.781-0.781 0.781-2.047 0-2.828l-12.728-12.728c-0.781-0.781-2.047-0.781-2.828 0s-0.781 2.047 0 2.828l11.314 11.314-11.314 11.314c-0.781 0.781-0.781 2.047 0 2.828s2.047 0.781 2.828 0l12.728-12.728zM2 18h50v-4h-50v4z"></path>
        </symbol>

    </defs>
</svg>